<!DOCTYPE svg PUBLIC "-//W3C//DTD SVG 1.1//EN" "http://www.w3.org/Graphics/SVG/1.1/DTD/svg11.dtd">
<!-- Uploaded to: SVG Repo, www.svgrepo.com, Transformed by: SVG Repo Mixer Tools -->
<svg height="800px" width="800px" version="1.1" id="Layer_1" xmlns="http://www.w3.org/2000/svg" xmlns:xlink="http://www.w3.org/1999/xlink" viewBox="0 0 503.467 503.467" xml:space="preserve" fill="#000000">
<g id="SVGRepo_bgCarrier" stroke-width="0"/>
<g id="SVGRepo_tracerCarrier" stroke-linecap="round" stroke-linejoin="round"/>
<g id="SVGRepo_iconCarrier"> <g transform="translate(5 1)"> <path style="fill:#FFF2F1;" d="M161.4,45.933c22.187-18.773,56.32-25.6,85.333-25.6c27.307,0,63.147,7.68,85.333,25.6l0,0V37.4 c0-18.773,15.36-34.133,34.133-34.133c18.773,0,34.133,15.36,34.133,34.133s-15.36,34.133-34.133,34.133 c-2.56,0-5.12,0-6.827-0.853c27.307,34.133,49.493,69.12,49.493,145.92c0,40.107-34.987,76.8-83.627,95.573 c-0.853,0-1.707,0.853-2.56,0.853c-23.04,9.387-49.493,14.507-75.947,14.507c-27.307,0-53.76-5.12-76.8-14.507h-0.853 C119.587,293.4,84.6,257.56,84.6,216.6c0-76.8,23.04-110.933,49.493-145.92c-2.56,0-4.267,0.853-6.827,0.853 c-18.773,0-34.133-15.36-34.133-34.133s15.36-34.133,34.133-34.133S161.4,18.627,161.4,37.4V45.933L161.4,45.933z"/> <g> <path style="fill:#AAB1BA;" d="M246.733,208.067c17.067,0,34.133,0,34.133,17.067s-19.627,25.6-34.133,25.6 s-34.133-8.533-34.133-25.6S229.667,208.067,246.733,208.067z M212.6,97.133c25.6,0,29.867,34.987,17.067,59.733 c-8.533,17.067-25.6,34.133-51.2,34.133c-21.333,0-34.133-13.653-34.133-34.133C144.333,131.267,169.933,97.133,212.6,97.133z M357.667,156.867c0,20.48-21.333,34.133-42.667,34.133c-25.6,0-34.133-17.067-42.667-34.133 C260.387,132.12,263.8,97.133,289.4,97.133C332.067,97.133,357.667,131.267,357.667,156.867z"/> <path style="fill:#AAB1BA;" d="M187,353.133c8.533,34.133,8.533,85.333,8.533,85.333c-13.653-4.267-28.16-6.827-35.84,0h-1.707 H128.12c0,0,0-59.733-42.667-59.733c-17.067-68.267,42.667-68.267,42.667-68.267s18.773,0,41.813,2.56h0.853v0.853 C183.587,333.507,187,353.133,187,353.133"/> <path style="fill:#AAB1BA;" d="M246.733,455.533v8.533c0,18.773-15.36,34.133-34.133,34.133h-42.667 c-8.533,0-15.36-8.533-17.067-17.067c-4.267-23.893-0.853-35.84,6.827-42.667c8.533-6.827,22.187-5.12,35.84,0L246.733,455.533z M169.933,313.88L169.933,313.88c23.893,8.533,49.493,13.653,76.8,13.653v128l-51.2-17.067c0,0,0-51.2-8.533-85.333 C187,353.133,183.587,333.507,169.933,313.88z"/> <path style="fill:#AAB1BA;" d="M159.693,438.467c-6.827,5.973-10.24,18.773-6.827,42.667 c-8.533,17.067-34.133,17.067-34.133,17.067H84.6c-17.067,0-29.867-8.533-38.4-21.333c-8.533-12.8-12.8-29.867-12.8-46.933 c0-25.6,17.067-51.2,51.2-51.2c42.667,0,42.667,59.733,42.667,59.733h29.867H159.693z"/> <path style="fill:#AAB1BA;" d="M246.733,455.533L246.733,455.533v8.533c0,18.773,15.36,34.133,34.133,34.133h42.667 c8.533,0,15.36-8.533,17.067-17.067c5.973-22.187,0.853-34.987-9.387-41.813c-8.533-5.12-21.333-5.12-33.28-0.853L246.733,455.533 L246.733,455.533L246.733,455.533l51.2-17.067c0,0,0-51.2,8.533-85.333c0,0,5.973-23.04,17.067-38.4l-0.853-0.853 c-23.04,9.387-49.493,14.507-75.947,14.507V455.533L246.733,455.533z"/> <path style="fill:#AAB1BA;" d="M366.2,310.467c0,0,59.733,0,42.667,68.267c-42.667,0-42.667,59.733-42.667,59.733h-34.133 l-0.853,0.853c-8.533-5.12-21.333-5.12-33.28-0.853c0,0,0-51.2,8.533-85.333c0,0,5.973-23.04,17.067-38.4l-0.853-0.853 c0.853,0,1.707-0.853,2.56-0.853C346.573,310.467,366.2,310.467,366.2,310.467"/> <path style="fill:#AAB1BA;" d="M408.867,378.733c34.133,0,51.2,25.6,51.2,51.2c0,17.067-4.267,34.133-12.8,46.933 c-8.533,12.8-21.333,21.333-38.4,21.333h-34.133c0,0-25.6,0-34.133-17.067c5.973-22.187,0.853-34.987-9.387-41.813l0.853-0.853 H366.2C366.2,438.467,366.2,378.733,408.867,378.733"/> </g> </g> <path style="fill:#51565F;" d="M413.867,503.467h-34.133c-2.56,0-4.267-1.707-4.267-4.267c0-2.56,1.707-4.267,4.267-4.267h34.133 c32.427,0,46.933-33.28,46.933-64c0-22.187-14.507-46.933-46.933-46.933l0,0c-37.547,0-38.4,52.907-38.4,55.467 c0,2.56-1.707,4.267-4.267,4.267l0,0c-2.56,0-4.267-1.707-4.267-4.267c0-21.333,9.387-61.44,43.52-64 c4.267-20.48,3.413-34.987-4.267-43.52c-9.387-10.24-25.6-7.68-25.6-7.68c-2.56,0-4.267-0.853-5.12-3.413 c0-2.56,0.853-4.267,3.413-5.12c0.853,0,20.48-3.413,33.28,10.24c9.387,10.24,11.947,27.307,6.827,49.493 c33.28,2.56,50.347,29.013,50.347,55.467C469.333,465.92,452.267,503.467,413.867,503.467z M328.533,503.467h-42.667 c-14.507,0-28.16-8.533-34.133-20.48c-5.973,11.947-19.627,20.48-34.133,20.48h-42.667c-11.093,0-19.627-10.24-21.333-20.48 c-4.267-23.04-1.707-38.4,7.68-46.08c9.387-7.68,23.04-5.973,34.987-3.413c0-14.507-1.707-52.053-8.533-78.507 c-0.853-2.56,0.853-4.267,3.413-5.12c2.56-0.853,4.267,0.853,5.12,3.413c7.68,29.867,8.533,72.533,8.533,83.627l14.507,7.68 c1.707,0.853,2.56,2.56,2.56,3.413s0,1.707-0.853,1.707c-0.853,1.707-3.413,2.56-5.973,1.707l-17.067-8.533 c-15.36-5.12-25.6-5.12-31.573,0c-6.827,5.973-8.533,18.773-5.12,38.4c0.853,6.827,6.827,13.653,12.8,13.653h42.667 c16.213,0,29.867-13.653,29.867-29.867V396.8c0-2.56,1.707-4.267,4.267-4.267c2.56,0,4.267,1.707,4.267,4.267v68.267 c0,16.213,13.653,29.867,29.867,29.867h42.667c5.973,0,11.093-6.827,12.8-13.653c4.267-16.213,2.56-28.16-4.267-34.987 c-6.827-5.973-18.773-7.68-32.427-3.413l-17.067,8.533c-1.707,0.853-4.267,0-5.973-1.707c0-0.853-0.853-0.853-0.853-1.707 c0-1.707,0.853-3.413,2.56-3.413l14.507-7.68c0-11.093,0.853-53.76,8.533-83.627c0.853-2.56,2.56-3.413,5.12-3.413 c2.56,0.853,3.413,2.56,3.413,5.12c-6.827,26.453-7.68,64.853-8.533,78.507c14.507-3.413,27.307-0.853,35.84,6.827 c6.827,5.973,12.8,18.773,6.827,42.667C347.307,493.227,339.627,503.467,328.533,503.467z M123.733,503.467H89.6 c-38.4,0-55.467-37.547-55.467-72.533c0-26.453,17.067-52.907,50.347-55.467c-5.12-23.04-2.56-39.253,6.827-49.493 c12.8-13.653,32.427-10.24,33.28-10.24c2.56,0,4.267,2.56,3.413,5.12c0,2.56-2.56,4.267-5.12,3.413c0,0-16.213-2.56-25.6,7.68 c-7.68,8.533-9.387,23.04-4.267,43.52c34.133,2.56,43.52,42.667,43.52,64c0,2.56-1.707,4.267-4.267,4.267l0,0 c-2.56,0-4.267-1.707-4.267-4.267c0-2.56-0.853-55.467-38.4-55.467l0,0c-32.427,0-46.933,24.747-46.933,46.933 c0,30.72,14.507,64,46.933,64h34.133c2.56,0,4.267,1.707,4.267,4.267C128,501.76,126.293,503.467,123.733,503.467z M251.733,332.8 c-88.747,0-166.4-53.76-166.4-115.2c0-71.68,19.627-107.52,44.373-140.8c-20.48-0.853-35.84-17.92-35.84-38.4 c0-21.333,17.067-38.4,38.4-38.4s38.4,17.067,38.4,38.4l0,0c23.04-15.36,55.467-21.333,81.067-21.333S309.76,23.04,332.8,38.4l0,0 c0-21.333,17.067-38.4,38.4-38.4c21.333,0,38.4,17.067,38.4,38.4c0,20.48-16.213,37.547-35.84,38.4 c24.747,33.28,44.373,69.12,44.373,140.8C418.133,279.04,340.48,332.8,251.733,332.8z M139.093,67.413 c1.707,0,2.56,0.853,3.413,1.707c0.853,1.707,0.853,3.413,0,5.12c-26.453,34.133-48.64,68.267-48.64,143.36 c0,57.173,73.387,106.667,157.867,106.667S409.6,274.773,409.6,217.6c0-75.093-22.187-109.227-48.64-143.36 c-0.853-1.707-0.853-3.413,0-5.12c0.853-1.707,2.56-2.56,4.267-1.707c1.707,0,4.267,0.853,5.973,0.853 c16.213,0,29.867-13.653,29.867-29.867S387.413,8.533,371.2,8.533S341.333,22.187,341.333,38.4v6.827 c0.853,0.853,1.707,1.707,3.413,2.56c1.707,1.707,1.707,4.267,0,5.973s-4.267,1.707-5.973,0 c-21.333-21.333-59.733-29.013-86.187-29.013c-28.16,0-65.707,7.68-86.187,29.013c-1.707,1.707-4.267,1.707-5.973,0 s-1.707-4.267,0-5.973c0.853-0.853,1.707-1.707,3.413-2.56V38.4c0-16.213-13.653-29.867-29.867-29.867S104.106,22.187,104.106,38.4 s13.653,29.867,29.867,29.867c1.707,0,4.267,0,5.973-0.853C139.093,67.413,139.093,67.413,139.093,67.413z M285.867,290.133 c-0.853,0-2.56,0-2.56-0.853c0,0-8.533-7.68-31.573-7.68s-30.72,7.68-31.573,7.68c-1.707,1.707-4.267,1.707-5.973,0 c-1.707-1.707-1.707-4.267,0-5.973c0.853-0.853,9.387-8.533,33.28-9.387v-17.067c-15.36-1.707-34.133-11.093-34.133-29.867 c0-21.333,21.333-21.333,38.4-21.333s38.4,0,38.4,21.333c0,18.773-18.773,28.16-34.133,29.867v17.067 c23.04,0.853,31.573,8.533,33.28,9.387c1.707,1.707,1.707,4.267,0,5.973C288.427,290.133,286.72,290.133,285.867,290.133z M251.733,213.333c-20.48,0-29.867,0.853-29.867,12.8c0,13.653,17.067,21.333,29.867,21.333s29.867-7.68,29.867-21.333 C281.6,214.187,272.213,213.333,251.733,213.333z M183.467,196.267c-23.04,0-38.4-15.36-38.4-38.4c0-26.453,25.6-64,72.533-64 c9.387,0,17.067,4.267,22.187,11.947c8.533,13.653,7.68,34.987-1.707,53.76C226.987,182.613,206.507,196.267,183.467,196.267z M217.6,102.4c-40.96,0-64,32.427-64,55.467c0,18.773,11.093,29.867,29.867,29.867c28.16,0,42.667-22.187,47.787-31.573 c7.68-15.36,8.533-34.133,1.707-45.227C229.547,104.96,224.427,102.4,217.6,102.4z M320,196.267 c-28.16,0-37.547-19.627-46.08-36.693l0,0c-9.387-17.92-9.387-40.107-1.707-53.76c5.12-7.68,12.8-11.947,22.187-11.947 c46.933,0,72.533,37.547,72.533,64C366.933,181.76,343.04,196.267,320,196.267z M281.6,156.16 c8.533,17.067,16.213,31.573,38.4,31.573c18.773,0,38.4-11.093,38.4-29.867c0-23.04-23.04-55.467-64-55.467 c-6.827,0-11.947,2.56-15.36,8.533C272.213,121.173,273.067,140.8,281.6,156.16L281.6,156.16z M315.733,162.133 c-5.12,0-8.533-3.413-8.533-8.533s3.413-8.533,8.533-8.533c5.12,0,8.533,3.413,8.533,8.533S320.853,162.133,315.733,162.133z M196.267,162.133c-5.12,0-8.533-3.413-8.533-8.533s3.413-8.533,8.533-8.533s8.533,3.413,8.533,8.533 S201.387,162.133,196.267,162.133z"/> </g>
</svg>